<svg xmlns="http://www.w3.org/2000/svg" xmlns:xlink="http://www.w3.org/1999/xlink" width="500" zoomAndPan="magnify" viewBox="0 0 375 374.999991" height="500" preserveAspectRatio="xMidYMid meet" version="1.0"><defs><clipPath id="c4e371f692"><path d="M 37.5 4.019531 L 140.988281 4.019531 L 140.988281 370.980469 L 37.5 370.980469 Z M 37.5 4.019531 " clip-rule="nonzero"/></clipPath><clipPath id="a96cf6072a"><path d="M 157 4.019531 L 337 4.019531 L 337 184 L 157 184 Z M 157 4.019531 " clip-rule="nonzero"/></clipPath><clipPath id="96dd05c91f"><path d="M 180.394531 157.425781 L 337.5 157.425781 L 337.5 314.53125 L 180.394531 314.53125 Z M 180.394531 157.425781 " clip-rule="nonzero"/></clipPath><clipPath id="200cc37733"><path d="M 258.949219 157.425781 C 215.5625 157.425781 180.394531 192.59375 180.394531 235.976562 C 180.394531 279.359375 215.5625 314.53125 258.949219 314.53125 C 302.332031 314.53125 337.5 279.359375 337.5 235.976562 C 337.5 192.59375 302.332031 157.425781 258.949219 157.425781 Z M 258.949219 157.425781 " clip-rule="nonzero"/></clipPath></defs><g clip-path="url(#c4e371f692)"><path fill="#ffffff" d="M 37.5 4.019531 L 140.988281 4.019531 L 140.988281 371.070312 L 37.5 371.070312 Z M 37.5 4.019531 " fill-opacity="1" fill-rule="nonzero"/></g><path fill="#ffffff" d="M 332.410156 8.496094 L 161.671875 8.496094 L 161.671875 179.238281 Z M 332.410156 8.496094 " fill-opacity="1" fill-rule="nonzero"/><g clip-path="url(#a96cf6072a)"><path fill="#ffffff" d="M 157.75 179.238281 L 157.75 8.496094 C 157.75 5.699219 159.429688 4.019531 161.671875 4.019531 L 332.410156 4.019531 C 334.089844 4.019531 335.769531 5.136719 336.328125 6.816406 C 337.449219 7.9375 336.890625 10.175781 335.769531 11.296875 L 165.027344 182.035156 C 163.910156 183.15625 162.230469 183.714844 160.550781 183.15625 C 158.871094 182.035156 157.75 180.917969 157.75 179.238281 Z M 166.148438 12.414062 L 166.148438 168.601562 L 322.335938 12.414062 Z M 166.148438 12.414062 " fill-opacity="1" fill-rule="nonzero"/></g><g clip-path="url(#96dd05c91f)"><g clip-path="url(#200cc37733)"><path fill="#ffffff" d="M 180.394531 157.425781 L 337.5 157.425781 L 337.5 314.53125 L 180.394531 314.53125 Z M 180.394531 157.425781 " fill-opacity="1" fill-rule="nonzero"/></g></g></svg>