<svg xmlns="http://www.w3.org/2000/svg" xmlns:xlink="http://www.w3.org/1999/xlink" width="500" zoomAndPan="magnify" viewBox="0 0 375 374.999991" height="500" preserveAspectRatio="xMidYMid meet" version="1.0"><defs><g/></defs><g fill="#020817" fill-opacity="1"><g transform="translate(75.965168, 201.751531)"><g><path d="M 27.875 -42.828125 L 27.875 -34.265625 L 12.875 -34.265625 L 12.875 -25.75 L 26.734375 -25.75 L 26.734375 -17.1875 L 12.875 -17.1875 L 12.875 0 L 3.109375 0 L 3.109375 -42.828125 Z M 27.875 -42.828125 "/></g></g></g><g fill="#020817" fill-opacity="1"><g transform="translate(101.036981, 201.751531)"><g><path d="M 36.03125 -42.828125 L 36.03125 -15.21875 C 36.03125 -9.957031 34.609375 -5.972656 31.765625 -3.265625 C 28.929688 -0.566406 24.78125 0.78125 19.3125 0.78125 C 13.84375 0.78125 9.6875 -0.566406 6.84375 -3.265625 C 4.007812 -5.972656 2.59375 -9.957031 2.59375 -15.21875 L 2.59375 -42.828125 L 12.359375 -42.828125 L 12.359375 -18.0625 C 12.359375 -14.601562 12.898438 -12.195312 13.984375 -10.84375 C 15.078125 -9.5 16.851562 -8.828125 19.3125 -8.828125 C 21.769531 -8.828125 23.539062 -9.5 24.625 -10.84375 C 25.71875 -12.195312 26.265625 -14.601562 26.265625 -18.0625 L 26.265625 -42.828125 Z M 36.03125 -42.828125 "/></g></g></g><g fill="#020817" fill-opacity="1"><g transform="translate(135.29698, 201.751531)"><g><path d="M 12.875 -26.578125 L 12.875 0 L 3.109375 0 L 3.109375 -42.828125 L 12.875 -42.828125 L 29.90625 -16.25 L 30.015625 -16.25 L 30.015625 -42.828125 L 39.765625 -42.828125 L 39.765625 0 L 30.015625 0 L 12.984375 -26.578125 Z M 12.875 -26.578125 "/></g></g></g><g fill="#020817" fill-opacity="1"><g transform="translate(173.813655, 201.751531)"><g><path d="M 1.1875 -21.4375 C 1.1875 -27.632812 3.296875 -32.878906 7.515625 -37.171875 C 11.742188 -41.460938 16.835938 -43.609375 22.796875 -43.609375 C 28.785156 -43.609375 33.875 -41.472656 38.0625 -37.203125 C 42.25 -32.929688 44.34375 -27.675781 44.34375 -21.4375 C 44.34375 -15.175781 42.28125 -9.90625 38.15625 -5.625 C 34.039062 -1.351562 28.921875 0.78125 22.796875 0.78125 C 16.523438 0.78125 11.351562 -1.335938 7.28125 -5.578125 C 3.21875 -9.816406 1.1875 -15.101562 1.1875 -21.4375 Z M 11.734375 -21.4375 C 11.734375 -19.1875 12.078125 -17.132812 12.765625 -15.28125 C 13.460938 -13.4375 14.675781 -11.875 16.40625 -10.59375 C 18.132812 -9.3125 20.265625 -8.671875 22.796875 -8.671875 C 26.429688 -8.671875 29.171875 -9.914062 31.015625 -12.40625 C 32.867188 -14.894531 33.796875 -17.90625 33.796875 -21.4375 C 33.796875 -24.9375 32.851562 -27.941406 30.96875 -30.453125 C 29.082031 -32.960938 26.359375 -34.21875 22.796875 -34.21875 C 19.265625 -34.21875 16.535156 -32.960938 14.609375 -30.453125 C 12.691406 -27.941406 11.734375 -24.9375 11.734375 -21.4375 Z M 11.734375 -21.4375 "/></g></g></g><g fill="#020817" fill-opacity="1"><g transform="translate(214.977781, 201.751531)"><g><path d="M 1.1875 -21.4375 C 1.1875 -27.632812 3.296875 -32.878906 7.515625 -37.171875 C 11.742188 -41.460938 16.835938 -43.609375 22.796875 -43.609375 C 28.785156 -43.609375 33.875 -41.472656 38.0625 -37.203125 C 42.25 -32.929688 44.34375 -27.675781 44.34375 -21.4375 C 44.34375 -15.175781 42.28125 -9.90625 38.15625 -5.625 C 34.039062 -1.351562 28.921875 0.78125 22.796875 0.78125 C 16.523438 0.78125 11.351562 -1.335938 7.28125 -5.578125 C 3.21875 -9.816406 1.1875 -15.101562 1.1875 -21.4375 Z M 11.734375 -21.4375 C 11.734375 -19.1875 12.078125 -17.132812 12.765625 -15.28125 C 13.460938 -13.4375 14.675781 -11.875 16.40625 -10.59375 C 18.132812 -9.3125 20.265625 -8.671875 22.796875 -8.671875 C 26.429688 -8.671875 29.171875 -9.914062 31.015625 -12.40625 C 32.867188 -14.894531 33.796875 -17.90625 33.796875 -21.4375 C 33.796875 -24.9375 32.851562 -27.941406 30.96875 -30.453125 C 29.082031 -32.960938 26.359375 -34.21875 22.796875 -34.21875 C 19.265625 -34.21875 16.535156 -32.960938 14.609375 -30.453125 C 12.691406 -27.941406 11.734375 -24.9375 11.734375 -21.4375 Z M 11.734375 -21.4375 "/></g></g></g><g fill="#020817" fill-opacity="1"><g transform="translate(256.141907, 201.751531)"><g><path d="M 12.875 -26.578125 L 12.875 0 L 3.109375 0 L 3.109375 -42.828125 L 12.875 -42.828125 L 29.90625 -16.25 L 30.015625 -16.25 L 30.015625 -42.828125 L 39.765625 -42.828125 L 39.765625 0 L 30.015625 0 L 12.984375 -26.578125 Z M 12.875 -26.578125 "/></g></g></g></svg>